<svg xmlns="http://www.w3.org/2000/svg" viewBox="0 0 256 256">
  <defs>
    <linearGradient id="blue" x1="0" y1="0" x2="1" y2="1">
      <stop offset="0" stop-color="#1e3a8a"/>
      <stop offset="1" stop-color="#3b82f6"/>
    </linearGradient>
    <mask id="ticket-mask">
      <rect x="16" y="48" width="224" height="160" rx="24" ry="24" fill="#fff"/>
      <circle cx="16" cy="128" r="12" fill="#000"/>
      <circle cx="240" cy="128" r="12" fill="#000"/>
    </mask>
    <clipPath id="leftHalf"><rect x="16" y="48" width="112" height="160" rx="24" ry="24"/></clipPath>
    <clipPath id="rightHalf"><rect x="128" y="48" width="112" height="160"/></clipPath>
  </defs>

  <rect x="16" y="48" width="224" height="160" rx="24" ry="24"
        fill="url(#blue)" mask="url(#ticket-mask)"/>

  <path d="M128 52 V204" stroke="#ffffff" stroke-width="4" stroke-dasharray="8 8" opacity="0.8"/>

  <g clip-path="url(#leftHalf)">
    <circle cx="72" cy="128" r="44" fill="rgba(255,255,255,0.12)"/>
    <text x="72" y="132" text-anchor="middle"
          font-family="DejaVu Sans, Arial, Helvetica, sans-serif"
          font-weight="700" font-size="64" fill="#ffffff">$</text>
  </g>

  <g clip-path="url(#rightHalf)">
    <path d="M136 184 H232 M136 72 V184" stroke="rgba(255,255,255,0.25)" stroke-width="2"/>
    <path d="M138 178 L154 160 170 168 186 140 202 156 218 120 230 132"
          fill="none" stroke="rgba(0,0,0,0.35)" stroke-width="6" stroke-linecap="round" stroke-linejoin="round"/>
    <path d="M136 180 L152 162 170 170 186 142 202 158 220 122 232 134"
          fill="none" stroke="#ffffff" stroke-width="4" stroke-linecap="round" stroke-linejoin="round"/>
    <g fill="#ffffff">
      <circle cx="136" cy="180" r="3"/>
      <circle cx="152" cy="162" r="3"/>
      <circle cx="170" cy="170" r="3"/>
      <circle cx="186" cy="142" r="3"/>
      <circle cx="202" cy="158" r="3"/>
      <circle cx="220" cy="122" r="3"/>
      <circle cx="232" cy="134" r="3"/>
    </g>
  </g>
</svg>
